<?xml version="1.0" encoding="UTF-8" standalone="no"?>
<!-- Created with Inkscape (http://www.inkscape.org/) -->

<svg
   xmlns:dc="http://purl.org/dc/elements/1.1/"
   xmlns:cc="http://creativecommons.org/ns#"
   xmlns:rdf="http://www.w3.org/1999/02/22-rdf-syntax-ns#"
   xmlns:svg="http://www.w3.org/2000/svg"
   xmlns="http://www.w3.org/2000/svg"
   xmlns:sodipodi="http://sodipodi.sourceforge.net/DTD/sodipodi-0.dtd"
   xmlns:inkscape="http://www.inkscape.org/namespaces/inkscape"
   width="350"
   height="150"
   viewBox="0 0 350 150"
   id="svg4417"
   version="1.1"
   inkscape:version="0.91 r13725"
   sodipodi:docname="sprep-secretariat-of-thepacific-regional-environment-programme.svg"
   inkscape:export-filename="/Users/alex/Downloads/sprep-secretariat-of-thepacific-regional-environment-programme.png"
   inkscape:export-xdpi="90"
   inkscape:export-ydpi="90">
  <defs
     id="defs4419">
    <clipPath
       clipPathUnits="userSpaceOnUse"
       id="clipPath44">
      <path
         d="m 0,0 595.275,0 0,841.89 L 0,841.89 0,0 Z"
         id="path46"
         inkscape:connector-curvature="0" />
    </clipPath>
    <clipPath
       clipPathUnits="userSpaceOnUse"
       id="clipPath30">
      <path
         d="m 202.232,27.285 193.441,0 0,70.56 -193.441,0 0,-70.56 z"
         id="path32"
         inkscape:connector-curvature="0" />
    </clipPath>
  </defs>
  <sodipodi:namedview
     id="base"
     pagecolor="#ffffff"
     bordercolor="#666666"
     borderopacity="1.0"
     inkscape:pageopacity="0.0"
     inkscape:pageshadow="2"
     inkscape:zoom="4.1857143"
     inkscape:cx="175"
     inkscape:cy="72.327967"
     inkscape:document-units="px"
     inkscape:current-layer="layer1"
     showgrid="false"
     units="px"
     inkscape:window-width="1920"
     inkscape:window-height="1031"
     inkscape:window-x="0"
     inkscape:window-y="1"
     inkscape:window-maximized="1" />
  <metadata
     id="metadata4422">
    <rdf:RDF>
      <cc:Work
         rdf:about="">
        <dc:format>image/svg+xml</dc:format>
        <dc:type
           rdf:resource="http://purl.org/dc/dcmitype/StillImage" />
        <dc:title></dc:title>
      </cc:Work>
    </rdf:RDF>
  </metadata>
  <g
     inkscape:label="Layer 1"
     inkscape:groupmode="layer"
     id="layer1"
     transform="translate(0,-902.36216)">
    <g
       id="g5258"
       transform="matrix(1.485767,0,0,1.485767,-378.53623,190.28172)">
      <g
         style="fill:#008081;fill-opacity:1"
         transform="matrix(1.25,0,0,-1.25,300.82375,510.4142)"
         id="g48">
        <path
           inkscape:connector-curvature="0"
           id="path50"
           style="fill:#008081;fill-opacity:1;fill-rule:nonzero;stroke:none"
           d="m 0,0 c 0,-1.255 -1.018,-2.272 -2.272,-2.272 -1.256,0 -2.273,1.017 -2.273,2.272 0,1.255 1.017,2.273 2.273,2.273 C -1.018,2.273 0,1.255 0,0" />
      </g>
      <g
         style="fill:#008081;fill-opacity:1"
         transform="matrix(1.25,0,0,-1.25,300.82375,510.4142)"
         id="g52">
        <path
           inkscape:connector-curvature="0"
           id="path54"
           style="fill:#008081;fill-opacity:1;fill-rule:nonzero;stroke:none"
           d="m 0,0 -0.262,0 c -0.002,-1.11 -0.9,-2.008 -2.01,-2.01 -1.111,0.002 -2.009,0.9 -2.011,2.01 0.002,1.11 0.9,2.008 2.011,2.01 1.11,-0.002 2.008,-0.9 2.01,-2.01 L 0,0 0.262,0 c 0,1.4 -1.135,2.535 -2.534,2.535 -1.401,0 -2.535,-1.135 -2.535,-2.535 0,-1.4 1.134,-2.535 2.535,-2.535 1.399,0 2.534,1.135 2.534,2.535 L 0,0 Z" />
      </g>
      <g
         style="fill:#008081;fill-opacity:1"
         transform="matrix(1.25,0,0,-1.25,301.21537,533.7612)"
         id="g56">
        <path
           inkscape:connector-curvature="0"
           id="path58"
           style="fill:#008081;fill-opacity:1;fill-rule:nonzero;stroke:none"
           d="m 0,0 0,6.01 0.584,0 c 0.976,0 1.767,0.641 1.767,1.431 l 0,6.592 c 0,0.791 -0.791,1.432 -1.767,1.432 l -6.026,0 c -0.976,0 -1.767,-0.641 -1.767,-1.432 l 0,-6.592 c 0,-0.79 0.791,-1.431 1.767,-1.431 l 0.74,0 0,-5.879 c -5.34,-1.177 -9.641,-6.705 -9.235,-13.335 0.359,-5.878 22.681,-5.135 22.681,0 C 8.744,-6.778 5.009,-1.407 0,0" />
      </g>
      <g
         style="fill:#008081;fill-opacity:1"
         transform="matrix(1.25,0,0,-1.25,301.21537,533.7612)"
         id="g60">
        <path
           inkscape:connector-curvature="0"
           id="path62"
           style="fill:#008081;fill-opacity:1;fill-rule:nonzero;stroke:none"
           d="m 0,0 0.066,0 0,5.944 0.518,0 c 1.002,0.002 1.83,0.659 1.833,1.497 l 0,6.592 c -0.003,0.839 -0.831,1.496 -1.833,1.498 l -6.026,0 c -1.003,-0.002 -1.83,-0.659 -1.833,-1.498 l 0,-6.592 c 0.003,-0.838 0.83,-1.495 1.833,-1.497 l 0.675,0 0,-5.813 0.065,0 -0.014,0.064 c -5.14,-1.133 -9.313,-6.264 -9.313,-12.534 0,-0.287 0.008,-0.577 0.026,-0.869 0.093,-1.466 1.494,-2.51 3.526,-3.191 2.037,-0.682 4.725,-1.005 7.447,-1.005 2.912,0 5.86,0.37 8.086,1.075 2.221,0.705 3.746,1.741 3.753,3.125 0,6.451 -3.747,11.849 -8.791,13.267 L 0,0 0.066,0 0,0 -0.018,-0.063 c 4.975,-1.397 8.696,-6.74 8.696,-13.141 0.008,-1.27 -1.449,-2.302 -3.662,-3 -2.207,-0.699 -5.146,-1.069 -8.046,-1.069 -2.711,0 -5.389,0.323 -7.405,0.999 -2.019,0.676 -3.356,1.7 -3.437,3.074 -0.018,0.289 -0.026,0.576 -0.026,0.861 -10e-4,6.212 4.137,11.289 9.211,12.406 l 0.051,0.012 0,5.996 -0.806,0 c -0.95,10e-4 -1.7,0.623 -1.702,1.366 l 0,6.592 c 0.002,0.744 0.752,1.366 1.702,1.367 l 6.026,0 c 0.95,-0.001 1.7,-0.623 1.701,-1.367 l 0,-6.592 C 2.284,6.698 1.534,6.076 0.584,6.075 l -0.584,0 -0.066,0 0,-6.125 0.048,-0.013 L 0,0 Z" />
      </g>
      <g
         style="fill:#008081;fill-opacity:1"
         transform="matrix(1.25,0,0,-1.25,326.03725,501.30832)"
         id="g64">
        <path
           inkscape:connector-curvature="0"
           id="path66"
           style="fill:#008081;fill-opacity:1;fill-rule:nonzero;stroke:none"
           d="m 0,0 c 0.291,0.312 1.052,1.06 2.292,1.78 1.993,1.156 3.122,1.717 3.122,1.717 0,0 -3.136,1.202 -6.16,-0.153 -1.977,-0.885 -3.498,-2.053 -3.498,-2.053 0,0 0.476,2.056 1.156,3.989 0.959,2.728 0.888,4.44 0.888,4.44 0,0 -2.456,-0.313 -3.642,-4.17 C -6.506,3.39 -6.45,1.899 -6.45,1.899 l -3.042,2.13 c -3.043,2.129 -5.476,0.913 -5.476,0.913 0,0 1.379,-0.498 3.27,-2.282 1.777,-1.677 2.586,-2.358 2.586,-2.358 0,0 -0.611,-0.246 -2.492,-0.559 -2.664,-0.444 -4.283,-3.448 -4.283,-3.448 0,0 1.201,0.417 4.283,0.679 2.718,0.23 4.621,-0.018 4.621,-0.018 0,0 -0.911,-0.923 -2.217,-2.751 -2.143,-3 0.012,-7.213 0.012,-7.213 0,0 0.562,1.205 2.077,4.914 1.104,2.704 1.878,3.605 1.878,3.605 l 0.214,0.182 c 1.602,-12.717 -2.037,-20.938 -8.673,-29.574 0.214,-0.255 0.558,-1.146 0.558,-4.246 0,-1.449 3.777,-3.621 8.362,14.112 1.122,4.089 1.123,14.567 0.881,19.439 0.443,-0.456 1.466,-1.37 3.791,-3.204 2.319,-1.829 3.504,-3.97 3.504,-3.97 0,0 0.054,4.283 -1.563,6.164 -1.474,1.714 -2.048,2.873 -2.048,2.873 0,0 1.861,0.455 4.151,0.105 2.048,-0.314 4.043,-0.209 4.043,-0.209 0,0 -1.078,1.201 -3.612,2.403 C 2.871,0.299 0.782,0.107 0,0 m -13.859,-34.102 0.167,0.221 c -0.097,0.115 -0.167,0.1 -0.167,0.1 l 0,-0.321 z" />
      </g>
      <g
         style="fill:#008081;fill-opacity:1"
         transform="matrix(1.25,0,0,-1.25,326.03725,501.30832)"
         id="g68">
        <path
           inkscape:connector-curvature="0"
           id="path70"
           style="fill:#008081;fill-opacity:1;fill-rule:nonzero;stroke:none"
           d="m 0,0 0.192,-0.179 c 0.277,0.298 1.02,1.028 2.232,1.732 0.994,0.577 1.771,1.004 2.3,1.288 0.529,0.283 0.806,0.42 0.807,0.421 L 6.067,3.527 5.508,3.741 C 5.49,3.748 4.181,4.25 2.414,4.251 1.42,4.251 0.278,4.09 -0.853,3.584 -2.862,2.684 -4.394,1.506 -4.404,1.499 l 0.16,-0.208 0.255,-0.059 c 0,0.001 0.118,0.509 0.321,1.26 0.203,0.752 0.491,1.744 0.827,2.701 0.847,2.409 0.904,4.044 0.904,4.444 L -1.938,9.731 -1.95,10.017 -2.234,9.981 C -2.293,9.984 -4.883,9.589 -6.092,5.627 -6.671,3.747 -6.714,2.363 -6.714,1.99 l 0.002,-0.101 0.262,0.01 0.15,0.215 -3.042,2.13 c -1.463,1.025 -2.81,1.307 -3.827,1.306 -1.162,-10e-4 -1.892,-0.362 -1.917,-0.374 l -0.547,-0.274 0.576,-0.207 0.052,-0.021 c 0.263,-0.109 1.498,-0.667 3.127,-2.205 1.78,-1.679 2.593,-2.364 2.597,-2.367 l 0.169,0.2 -0.098,0.243 -0.021,-0.007 c -0.122,-0.044 -0.781,-0.265 -2.416,-0.537 -1.42,-0.239 -2.531,-1.143 -3.291,-1.972 -0.76,-0.831 -1.173,-1.598 -1.18,-1.61 l -0.32,-0.594 0.637,0.222 0.048,0.015 c 0.251,0.077 1.49,0.423 4.172,0.65 0.852,0.073 1.624,0.097 2.281,0.097 0.707,0 1.28,-0.028 1.676,-0.057 0.395,-0.029 0.607,-0.057 0.608,-0.056 l 0.033,0.26 -0.186,0.184 c -0.009,-0.008 -0.93,-0.941 -2.245,-2.782 -0.751,-1.052 -0.998,-2.241 -0.998,-3.344 0.003,-2.22 0.983,-4.122 0.99,-4.141 l 0.245,-0.478 0.227,0.487 c 0.002,0.005 0.566,1.214 2.082,4.925 0.548,1.341 1.012,2.231 1.336,2.782 0.162,0.276 0.289,0.467 0.375,0.587 l 0.095,0.13 0.028,0.034 -0.199,0.171 0.17,-0.2 0.214,0.182 -0.17,0.2 -0.26,-0.033 c 0.252,-2.002 0.373,-3.89 0.373,-5.684 -0.003,-9.545 -3.425,-16.445 -8.994,-23.697 l -0.129,-0.167 0.136,-0.162 c 0.128,-0.127 0.506,-1 0.496,-4.077 10e-4,-0.288 0.11,-0.579 0.316,-0.811 0.206,-0.231 0.522,-0.395 0.901,-0.394 0.437,10e-4 0.932,0.206 1.472,0.677 1.614,1.419 3.78,5.275 6.19,14.575 l -0.254,0.065 0.253,-0.069 c 0.781,2.856 1.017,8.626 1.019,13.572 0,2.291 -0.052,4.4 -0.129,5.949 l -0.262,-0.013 -0.188,-0.183 c 0.46,-0.473 1.487,-1.389 3.817,-3.227 1.137,-0.897 2,-1.874 2.576,-2.625 0.288,-0.375 0.504,-0.694 0.648,-0.918 0.072,-0.112 0.126,-0.2 0.162,-0.26 l 0.051,-0.088 0.48,-0.867 0.012,0.991 0,0.051 c 0,0.247 -0.012,1.346 -0.217,2.617 -0.207,1.271 -0.595,2.715 -1.41,3.67 -0.729,0.848 -1.234,1.557 -1.556,2.051 -0.161,0.248 -0.276,0.442 -0.351,0.573 l -0.081,0.148 -0.024,0.047 -0.235,-0.117 0.062,-0.255 c 0,0 0.053,0.014 0.162,0.035 0.326,0.064 1.118,0.195 2.147,0.195 0.528,0 1.118,-0.034 1.74,-0.13 1.249,-0.191 2.47,-0.228 3.249,-0.228 0.52,0 0.844,0.017 0.847,0.017 l 0.548,0.028 -0.366,0.409 C 8.162,-2.62 7.056,-1.396 4.487,-0.177 3.565,0.259 2.476,0.368 1.563,0.369 0.887,0.369 0.306,0.306 -0.035,0.26 L 0,0 0.192,-0.179 0,0 0.035,-0.26 c 0.325,0.044 0.884,0.104 1.528,0.104 0.87,0.001 1.895,-0.112 2.699,-0.495 1.25,-0.593 2.137,-1.183 2.709,-1.623 0.286,-0.22 0.494,-0.403 0.629,-0.528 l 0.148,-0.145 0.043,-0.045 0.196,0.175 -0.014,0.262 c -10e-4,0 -0.311,-0.017 -0.82,-0.017 -0.762,0 -1.961,0.038 -3.17,0.223 -0.652,0.1 -1.268,0.136 -1.819,0.136 -1.431,-10e-4 -2.419,-0.242 -2.434,-0.245 l -0.318,-0.078 0.146,-0.293 c 0.008,-0.017 0.594,-1.195 2.084,-2.928 0.701,-0.809 1.096,-2.184 1.291,-3.411 0.198,-1.228 0.21,-2.305 0.209,-2.534 l 0,-0.045 0.262,-0.003 0.23,0.127 c -0.011,0.017 -1.21,2.185 -3.571,4.049 -2.321,1.83 -3.341,2.742 -3.766,3.18 l -0.484,0.5 0.034,-0.695 c 0.076,-1.538 0.129,-3.64 0.129,-5.923 0.002,-4.919 -0.248,-10.702 -1.001,-13.433 l 0,-0.003 -10e-4,-0.001 c -1.595,-6.172 -3.092,-9.918 -4.35,-12.101 -0.628,-1.092 -1.197,-1.792 -1.676,-2.209 -0.481,-0.419 -0.863,-0.549 -1.128,-0.548 -0.231,0.001 -0.391,0.089 -0.511,0.22 -0.118,0.13 -0.182,0.309 -0.181,0.46 -0.01,3.123 -0.32,4.032 -0.619,4.415 l -0.201,-0.169 0.208,-0.16 c 5.604,7.288 9.106,14.339 9.103,24.017 0,1.818 -0.123,3.728 -0.378,5.75 l -0.06,0.481 -0.584,-0.496 -0.016,-0.014 -0.013,-0.015 c -0.022,-0.026 -0.809,-0.952 -1.922,-3.676 -0.757,-1.854 -1.275,-3.081 -1.604,-3.844 -0.33,-0.763 -0.467,-1.058 -0.468,-1.059 l 0.238,-0.111 0.233,0.12 -0.037,0.078 c -0.177,0.369 -0.897,2.018 -0.895,3.824 0,1.027 0.228,2.098 0.9,3.039 0.648,0.907 1.198,1.589 1.585,2.043 0.193,0.227 0.346,0.397 0.45,0.509 0.103,0.113 0.156,0.166 0.156,0.166 l 0.372,0.377 -0.525,0.068 c -0.009,10e-4 -0.908,0.118 -2.351,0.118 -0.67,0 -1.457,-0.025 -2.326,-0.099 -3.1,-0.263 -4.322,-0.684 -4.347,-0.693 l 0.086,-0.247 0.231,-0.125 0.069,0.12 c 0.327,0.564 1.849,2.846 4.026,3.194 1.894,0.315 2.522,0.565 2.547,0.575 l 0.405,0.163 -0.334,0.281 c -0.001,0 -0.198,0.167 -0.621,0.545 -0.422,0.378 -1.067,0.966 -1.954,1.803 -1.919,1.811 -3.332,2.327 -3.361,2.337 l -0.089,-0.246 0.117,-0.235 0.022,0.01 c 0.123,0.056 0.74,0.309 1.66,0.308 0.922,-0.001 2.149,-0.248 3.526,-1.211 l 3.042,-2.13 0.433,-0.303 -0.02,0.528 -0.001,0.081 c 0,0.332 0.039,1.665 0.598,3.483 0.58,1.882 1.454,2.869 2.17,3.397 0.359,0.264 0.68,0.412 0.907,0.494 0.114,0.041 0.205,0.066 0.265,0.08 L -2.182,9.458 -2.167,9.46 -2.2,9.72 -2.462,9.71 -2.461,9.637 c 0,-0.35 -0.051,-1.925 -0.875,-4.27 C -4.021,3.416 -4.499,1.355 -4.5,1.35 l -0.165,-0.713 0.58,0.446 c 0.001,0 0.091,0.069 0.261,0.191 0.512,0.363 1.727,1.178 3.185,1.831 1.048,0.469 2.114,0.621 3.053,0.621 0.834,0 1.565,-0.12 2.085,-0.239 C 4.76,3.427 4.967,3.367 5.108,3.323 5.25,3.279 5.32,3.251 5.32,3.252 L 5.414,3.497 5.298,3.732 C 5.293,3.729 4.159,3.166 2.161,2.007 0.893,1.27 0.112,0.506 -0.192,0.179 L -0.692,-0.359 0.035,-0.26 0,0 Z m -13.859,-34.102 0.21,-0.158 0.166,0.221 0.126,0.167 -0.134,0.16 c -0.111,0.137 -0.259,0.198 -0.36,0.194 l -0.063,-0.006 -0.207,-0.044 0,-0.534 0,-0.784 0.472,0.626 -0.21,0.158 0.262,0 0,0.321 -0.262,0 0.055,-0.256 -0.047,0.218 0,-0.223 0.047,0.005 -0.047,0.218 0,-0.223 0,0.13 -0.06,-0.118 0.06,-0.012 0,0.13 -0.06,-0.118 0.018,0.035 -0.022,-0.033 0.004,-0.002 0.018,0.035 -0.022,-0.033 0.022,-0.022 0.201,0.169 -0.21,0.158 -0.166,-0.222 0.209,-0.157 0.262,0 -0.262,0 z" />
      </g>
      <g
         style="fill:#0054a4;fill-opacity:1"
         transform="matrix(1.25,0,0,-1.25,273.09725,568.08332)"
         id="g72">
        <path
           inkscape:connector-curvature="0"
           id="path74"
           style="fill:#0054a4;fill-opacity:1;fill-rule:nonzero;stroke:none"
           d="m 0,0 c 1.725,0.16 3.169,0.225 4.416,0.225 3.137,-0.002 5.021,-0.405 7.137,-0.833 2.111,-0.429 4.434,-0.877 8.122,-0.874 0.224,0 0.453,10e-4 0.688,0.005 3.278,0.045 5.446,0.423 7.464,0.775 2.022,0.351 3.888,0.675 6.809,0.677 1.51,0 3.302,-0.089 5.527,-0.314 0.573,-0.058 1.085,0.36 1.143,0.933 0.058,0.573 -0.36,1.085 -0.933,1.143 C 38.091,1.968 36.228,2.061 34.636,2.061 31.559,2.063 29.488,1.706 27.469,1.354 25.447,1.003 23.47,0.655 20.334,0.609 20.109,0.606 19.889,0.605 19.675,0.605 16.146,0.607 14.067,1.013 11.967,1.438 9.871,1.863 7.735,2.314 4.416,2.312 3.096,2.312 1.587,2.243 -0.192,2.078 -0.766,2.025 -1.188,1.517 -1.135,0.943 -1.082,0.369 -0.574,-0.053 0,0 Z" />
      </g>
      <g
         style="fill:#0054a4;fill-opacity:1"
         transform="matrix(1.25,0,0,-1.25,324.80712,568.19882)"
         id="g76">
        <path
           inkscape:connector-curvature="0"
           id="path78"
           style="fill:#0054a4;fill-opacity:1;fill-rule:nonzero;stroke:none"
           d="m 0,0 c 8.733,6.369 13.989,16.557 13.983,28.143 0,7.287 -2.017,14.26 -6.123,19.782 C 7.428,48.506 6.606,48.627 6.025,48.194 5.444,47.762 5.323,46.94 5.756,46.359 9.473,41.365 11.36,34.952 11.36,28.143 11.355,17.35 6.509,8.006 -1.547,2.119 -2.132,1.692 -2.26,0.871 -1.833,0.286 -1.406,-0.299 -0.585,-0.427 0,0" />
      </g>
      <g
         style="fill:#0054a4;fill-opacity:1"
         transform="matrix(1.25,0,0,-1.25,307.00875,490.0857)"
         id="g80">
        <path
           inkscape:connector-curvature="0"
           id="path82"
           style="fill:#0054a4;fill-opacity:1;fill-rule:nonzero;stroke:none"
           d="m 0,0 c -2.195,0.431 -4.463,0.657 -6.783,0.657 -19.333,-0.001 -35.003,-15.672 -35.004,-35.005 -0.014,-11.551 4.857,-21.404 13.593,-27.766 0.585,-0.428 1.406,-0.299 1.833,0.286 0.427,0.585 0.299,1.405 -0.286,1.832 -8.053,5.893 -12.504,14.822 -12.517,25.648 0,8.946 3.622,17.033 9.484,22.897 5.864,5.862 13.951,9.484 22.897,9.485 2.149,0 4.248,-0.209 6.278,-0.608 0.71,-0.139 1.4,0.324 1.539,1.034 C 1.174,-0.829 0.711,-0.14 0,0 Z" />
      </g>
      <g
         style="fill:#0054a4;fill-opacity:1"
         transform="matrix(1.25,0,0,-1.25,266.1215,561.10545)"
         id="g84">
        <path
           inkscape:connector-curvature="0"
           id="path86"
           style="fill:#0054a4;fill-opacity:1;fill-rule:nonzero;stroke:none"
           d="m 0,0 c 2.427,0.528 4.202,0.721 5.69,0.721 1.25,0 2.309,-0.134 3.435,-0.348 1.685,-0.319 3.53,-0.84 6.13,-1.297 2.6,-0.457 5.938,-0.841 10.659,-0.91 l 0.019,0 0.018,0 c 4.667,0.051 8.048,0.736 10.922,1.385 2.882,0.653 5.212,1.24 8.007,1.239 1.901,-0.001 4.047,-0.268 6.768,-1.014 l 0.759,2.768 C 49.485,3.346 47.057,3.66 44.88,3.66 41.666,3.659 39.06,2.985 36.241,2.351 33.414,1.714 30.327,1.087 25.919,1.036 l 0.016,-1.435 0.021,1.435 C 19.833,1.127 16.267,1.747 13.494,2.349 12.106,2.65 10.903,2.955 9.663,3.192 8.425,3.428 7.15,3.592 5.69,3.591 3.947,3.591 1.955,3.362 -0.61,2.804 L 0,0 Z" />
      </g>
      <g
         style="fill:#0054a4;fill-opacity:1"
         transform="matrix(1.25,0,0,-1.25,261.21712,554.34407)"
         id="g88">
        <path
           inkscape:connector-curvature="0"
           id="path90"
           style="fill:#0054a4;fill-opacity:1;fill-rule:nonzero;stroke:none"
           d="m 0,0 c 4.879,1.206 8.156,1.615 10.601,1.614 1.551,-0.001 2.773,-0.159 3.93,-0.402 1.728,-0.359 3.357,-0.948 5.528,-1.476 2.166,-0.525 4.822,-0.946 8.507,-0.944 0.158,0 0.319,10e-4 0.482,0.002 5.188,0.046 8.792,0.832 11.775,1.574 1.491,0.37 2.822,0.723 4.138,0.977 1.317,0.255 2.62,0.416 4.105,0.417 2.495,-0.001 5.547,-0.462 9.917,-1.863 l 1.122,3.497 C 55.492,4.877 52.031,5.435 49.066,5.434 47.309,5.435 45.742,5.237 44.263,4.95 42.039,4.517 40.029,3.905 37.688,3.407 35.344,2.908 32.648,2.502 29.013,2.466 28.862,2.465 28.713,2.464 28.566,2.464 24.003,2.472 21.475,3.118 19.054,3.805 17.844,4.15 16.649,4.519 15.286,4.806 13.925,5.093 12.407,5.287 10.601,5.286 7.742,5.286 4.177,4.814 -0.881,3.565 L 0,0 Z" />
      </g>
      <g
         style="fill:#e25c48;fill-opacity:1"
         transform="matrix(1.25,0,0,-1.25,281.08537,508.48757)"
         id="g92">
        <path
           inkscape:connector-curvature="0"
           id="path94"
           style="fill:#e25c48;fill-opacity:1;fill-rule:nonzero;stroke:none"
           d="m 0,0 -0.626,0.441 -0.595,-0.488 0.206,0.719 -0.629,0.427 0.684,0.049 0.303,0.596 0.293,-0.596 0.697,0.028 -0.61,-0.52 L 0,0 Z" />
      </g>
      <g
         style="fill:#e25c48;fill-opacity:1"
         transform="matrix(1.25,0,0,-1.25,281.08537,508.48757)"
         id="g96">
        <path
           inkscape:connector-curvature="0"
           id="path98"
           style="fill:#e25c48;fill-opacity:1;fill-rule:nonzero;stroke:none"
           d="m 0,0 0.151,0.214 -0.626,0.442 -0.163,0.115 -0.749,-0.616 0.166,-0.202 0.252,-0.073 0.206,0.719 0.053,0.183 -0.787,0.534 -0.147,-0.217 0.019,-0.261 0.684,0.049 0.148,0.01 0.132,0.261 0.062,-0.126 0.075,-0.153 0.11,0.005 L -0.447,0.855 -0.593,0.731 -0.242,-0.102 0,0 0.151,0.214 0,0 0.242,0.102 0.04,0.581 0.503,0.977 1.079,1.468 -0.204,1.417 -0.422,1.86 -0.654,2.33 -1.126,1.399 -1.663,1.361 -2.416,1.307 -1.319,0.561 -1.473,0.025 -1.705,-0.785 -0.614,0.112 -0.151,-0.214 0.598,-0.743 0.242,0.102 0,0 Z" />
      </g>
      <g
         style="fill:#e25c48;fill-opacity:1"
         transform="matrix(1.25,0,0,-1.25,274.1395,515.4007)"
         id="g100">
        <path
           inkscape:connector-curvature="0"
           id="path102"
           style="fill:#e25c48;fill-opacity:1;fill-rule:nonzero;stroke:none"
           d="m 0,0 -0.626,0.441 -0.595,-0.488 0.206,0.719 -0.629,0.427 0.684,0.049 0.303,0.596 0.293,-0.596 0.697,0.028 -0.61,-0.52 L 0,0 Z" />
      </g>
      <g
         style="fill:#e25c48;fill-opacity:1"
         transform="matrix(1.25,0,0,-1.25,274.1395,515.4007)"
         id="g104">
        <path
           inkscape:connector-curvature="0"
           id="path106"
           style="fill:#e25c48;fill-opacity:1;fill-rule:nonzero;stroke:none"
           d="m 0,0 0.151,0.214 -0.626,0.442 -0.163,0.115 -0.749,-0.616 0.166,-0.202 0.252,-0.073 0.206,0.719 0.053,0.183 -0.787,0.534 -0.147,-0.217 0.019,-0.261 0.684,0.049 0.148,0.01 0.132,0.261 0.062,-0.126 0.075,-0.153 0.11,0.005 L -0.447,0.855 -0.593,0.731 -0.242,-0.102 0,0 0.151,0.214 0,0 0.242,0.102 0.04,0.581 0.503,0.977 1.079,1.468 -0.204,1.417 -0.422,1.86 -0.654,2.33 -1.126,1.399 -1.663,1.361 -2.416,1.307 -1.319,0.561 -1.473,0.025 -1.705,-0.785 -0.614,0.112 -0.151,-0.214 0.598,-0.742 0.242,0.102 0,0 Z" />
      </g>
      <g
         style="fill:#e25c48;fill-opacity:1"
         transform="matrix(1.25,0,0,-1.25,288.50237,515.30308)"
         id="g108">
        <path
           inkscape:connector-curvature="0"
           id="path110"
           style="fill:#e25c48;fill-opacity:1;fill-rule:nonzero;stroke:none"
           d="m 0,0 -0.626,0.441 -0.595,-0.488 0.206,0.719 -0.629,0.427 0.684,0.049 0.303,0.596 0.293,-0.596 0.697,0.028 -0.61,-0.52 L 0,0 Z" />
      </g>
      <g
         style="fill:#e25c48;fill-opacity:1"
         transform="matrix(1.25,0,0,-1.25,288.50237,515.30308)"
         id="g112">
        <path
           inkscape:connector-curvature="0"
           id="path114"
           style="fill:#e25c48;fill-opacity:1;fill-rule:nonzero;stroke:none"
           d="m 0,0 0.151,0.214 -0.626,0.442 -0.163,0.115 -0.749,-0.616 0.166,-0.202 0.252,-0.073 0.206,0.719 0.053,0.183 -0.787,0.534 -0.147,-0.217 0.019,-0.261 0.684,0.049 0.148,0.01 0.132,0.261 L -0.599,1.032 -0.524,0.88 -0.413,0.884 -0.447,0.855 -0.593,0.731 -0.242,-0.102 0,0 0.151,0.214 0,0 0.242,0.102 0.04,0.581 0.503,0.977 1.078,1.468 -0.204,1.417 -0.422,1.86 -0.654,2.33 -1.126,1.399 -1.663,1.361 -2.416,1.307 -1.319,0.561 -1.473,0.025 -1.705,-0.785 -0.614,0.112 -0.151,-0.214 0.598,-0.743 0.242,0.102 0,0 Z" />
      </g>
      <g
         style="fill:#e25c48;fill-opacity:1"
         transform="matrix(1.25,0,0,-1.25,281.13462,526.64895)"
         id="g116">
        <path
           inkscape:connector-curvature="0"
           id="path118"
           style="fill:#e25c48;fill-opacity:1;fill-rule:nonzero;stroke:none"
           d="m 0,0 -0.626,0.441 -0.595,-0.488 0.206,0.719 -0.629,0.427 0.684,0.049 0.303,0.596 0.293,-0.596 0.697,0.028 -0.61,-0.52 L 0,0 Z" />
      </g>
      <g
         style="fill:#e25c48;fill-opacity:1"
         transform="matrix(1.25,0,0,-1.25,281.13462,526.64895)"
         id="g120">
        <path
           inkscape:connector-curvature="0"
           id="path122"
           style="fill:#e25c48;fill-opacity:1;fill-rule:nonzero;stroke:none"
           d="m 0,0 0.151,0.214 -0.626,0.442 -0.163,0.115 -0.749,-0.616 0.166,-0.202 0.252,-0.073 0.206,0.719 0.052,0.183 -0.786,0.534 -0.147,-0.217 0.019,-0.261 0.684,0.049 0.148,0.01 0.132,0.261 L -0.599,1.032 -0.524,0.88 -0.413,0.884 -0.447,0.855 -0.593,0.731 -0.242,-0.102 0,0 0.151,0.214 0,0 0.242,0.102 0.04,0.581 0.503,0.977 1.079,1.468 -0.204,1.417 -0.422,1.86 -0.654,2.33 -1.126,1.399 -1.663,1.361 -2.416,1.307 -1.319,0.561 -1.473,0.025 -1.705,-0.785 -0.614,0.112 -0.151,-0.214 0.598,-0.743 0.242,0.102 0,0 Z" />
      </g>
      <g
         style="fill:#e25c48;fill-opacity:1"
         transform="matrix(1.25,0,0,-1.25,284.206,519.17682)"
         id="g124">
        <path
           inkscape:connector-curvature="0"
           id="path126"
           style="fill:#e25c48;fill-opacity:1;fill-rule:nonzero;stroke:none"
           d="m 0,0 -0.285,0.186 -0.27,-0.208 0.094,0.305 -0.286,0.18 0.312,0.021 0.138,0.252 L -0.164,0.485 0.152,0.497 -0.125,0.277 0,0 Z" />
      </g>
      <g
         style="fill:#e25c48;fill-opacity:1"
         transform="matrix(1.25,0,0,-1.25,284.206,519.17682)"
         id="g128">
        <path
           inkscape:connector-curvature="0"
           id="path130"
           style="fill:#e25c48;fill-opacity:1;fill-rule:nonzero;stroke:none"
           d="m 0,0 0.143,0.22 -0.285,0.185 -0.155,0.102 -0.418,-0.32 0.16,-0.209 0.25,-0.077 0.094,0.304 0.06,0.192 -0.456,0.288 -0.14,-0.222 0.018,-0.262 0.312,0.022 0.142,0.01 0.208,0.377 -0.23,0.126 L -0.529,0.614 -0.396,0.363 -0.319,0.216 0.163,0.235 0.152,0.497 -0.011,0.703 -0.289,0.482 -0.449,0.355 -0.239,-0.108 0,0 0.143,0.22 0,0 0.239,0.108 0.198,0.199 0.315,0.292 0.943,0.791 -0.01,0.754 -0.065,0.859 -0.292,1.289 -0.596,0.736 -0.765,0.725 -1.565,0.669 -0.771,0.168 -0.806,0.056 -1.049,-0.73 -0.273,-0.135 -0.143,-0.22 0.609,-0.71 0.239,0.108 0,0 Z" />
      </g>
      <g
         style="fill:#0054a4;fill-opacity:1"
         transform="matrix(1.25,0,0,-1.25,355.27762,564.88795)"
         id="g132">
        <path
           inkscape:connector-curvature="0"
           id="path134"
           style="fill:#0054a4;fill-opacity:1;fill-rule:nonzero;stroke:none"
           d="m 0,0 -1.945,0 0,1.332 2.06,0 0,0.773 -3.001,0 0,-5.16 3.116,0 0,0.774 -2.175,0 0,1.515 1.945,0 L 0,0 Z m 0.926,-3.055 0.942,0 0,2.198 c 0,0.107 0.015,0.222 0.046,0.298 0.099,0.283 0.36,0.551 0.735,0.551 0.513,0 0.712,-0.405 0.712,-0.941 l 0,-2.106 0.941,0 0,2.213 c 0,1.179 -0.673,1.6 -1.324,1.6 -0.62,0 -1.026,-0.352 -1.194,-0.643 l -0.023,0 -0.046,0.559 -0.819,0 c 0.015,-0.322 0.03,-0.682 0.03,-1.11 l 0,-2.619 z m 3.744,3.729 1.386,-3.729 0.926,0 1.424,3.729 -0.988,0 -0.597,-1.891 C 6.722,-1.554 6.637,-1.845 6.568,-2.151 l -0.022,0 C 6.477,-1.845 6.4,-1.546 6.293,-1.217 l -0.605,1.891 -1.018,0 z m 5.16,0 -0.942,0 0,-3.728 0.942,0 0,3.728 z M 9.363,2.228 C 9.049,2.228 8.834,2.006 8.834,1.715 8.834,1.439 9.041,1.21 9.355,1.21 9.684,1.21 9.891,1.439 9.891,1.715 9.883,2.006 9.684,2.228 9.363,2.228 m 1.393,-5.283 0.942,0 0,1.937 c 0,0.1 0.007,0.199 0.023,0.284 0.084,0.428 0.398,0.712 0.842,0.712 0.115,0 0.199,-0.008 0.283,-0.023 l 0,0.88 c -0.077,0.015 -0.13,0.023 -0.222,0.023 -0.406,0 -0.842,-0.268 -1.026,-0.789 l -0.023,0 -0.038,0.705 -0.812,0 c 0.023,-0.33 0.031,-0.697 0.031,-1.202 l 0,-2.527 z m 4.256,3.813 c -1.125,0 -1.929,-0.75 -1.929,-1.975 0,-1.202 0.819,-1.922 1.868,-1.922 0.95,0 1.914,0.613 1.914,1.983 0,1.133 -0.742,1.914 -1.853,1.914 M 14.99,0.077 c 0.643,0 0.903,-0.674 0.903,-1.256 0,-0.758 -0.375,-1.278 -0.911,-1.278 -0.567,0 -0.926,0.543 -0.926,1.263 0,0.62 0.267,1.271 0.934,1.271 m 2.556,-3.132 0.942,0 0,2.198 c 0,0.107 0.015,0.222 0.046,0.298 0.1,0.283 0.36,0.551 0.735,0.551 0.513,0 0.712,-0.405 0.712,-0.941 l 0,-2.106 0.942,0 0,2.213 c 0,1.179 -0.674,1.6 -1.325,1.6 -0.62,0 -1.026,-0.352 -1.194,-0.643 l -0.023,0 -0.046,0.559 -0.819,0 c 0.015,-0.322 0.03,-0.682 0.03,-1.11 l 0,-2.619 z m 4.287,0 0.919,0 0,2.205 c 0,0.107 0.015,0.215 0.046,0.314 0.092,0.253 0.329,0.528 0.681,0.528 0.437,0 0.643,-0.367 0.643,-0.888 l 0,-2.159 0.919,0 0,2.236 c 0,0.107 0.015,0.23 0.046,0.314 0.1,0.268 0.337,0.497 0.658,0.497 0.452,0 0.667,-0.367 0.667,-0.987 l 0,-2.06 0.918,0 0,2.198 c 0,1.194 -0.628,1.615 -1.24,1.615 -0.314,0 -0.551,-0.077 -0.766,-0.222 -0.168,-0.107 -0.321,-0.26 -0.451,-0.467 l -0.016,0 c -0.16,0.413 -0.543,0.689 -1.033,0.689 -0.635,0 -0.972,-0.345 -1.148,-0.636 l -0.023,0 -0.046,0.552 -0.804,0 c 0.015,-0.322 0.03,-0.682 0.03,-1.11 l 0,-2.619 z m 9.562,1.6 c 0.016,0.085 0.031,0.222 0.031,0.399 0,0.819 -0.398,1.814 -1.608,1.814 -1.194,0 -1.822,-0.972 -1.822,-2.006 0,-1.141 0.712,-1.883 1.922,-1.883 0.536,0 0.98,0.099 1.301,0.237 l -0.138,0.643 c -0.291,-0.099 -0.597,-0.168 -1.033,-0.168 -0.605,0 -1.126,0.291 -1.148,0.964 l 2.495,0 z M 28.9,-0.796 c 0.038,0.383 0.283,0.911 0.865,0.911 0.627,0 0.78,-0.567 0.773,-0.911 l -1.638,0 z m 3.192,-2.259 0.941,0 0,2.198 c 0,0.107 0.016,0.222 0.046,0.298 0.1,0.283 0.36,0.551 0.735,0.551 0.513,0 0.712,-0.405 0.712,-0.941 l 0,-2.106 0.942,0 0,2.213 c 0,1.179 -0.674,1.6 -1.325,1.6 -0.62,0 -1.025,-0.352 -1.194,-0.643 l -0.023,0 -0.046,0.559 -0.819,0 c 0.016,-0.322 0.031,-0.682 0.031,-1.11 l 0,-2.619 z m 4.402,4.425 0,-0.696 -0.528,0 0,-0.705 0.528,0 0,-1.753 c 0,-0.49 0.092,-0.834 0.298,-1.049 0.176,-0.191 0.46,-0.306 0.812,-0.306 0.291,0 0.543,0.046 0.681,0.1 l -0.015,0.712 c -0.107,-0.031 -0.199,-0.039 -0.368,-0.039 -0.359,0 -0.482,0.23 -0.482,0.689 l 0,1.646 0.896,0 0,0.705 -0.896,0 0,0.957 -0.926,-0.261 z m 5.39,-4.425 0.934,0 0,1.953 c 0.13,-0.031 0.283,-0.039 0.46,-0.039 0.666,0 1.247,0.184 1.63,0.559 0.283,0.276 0.437,0.674 0.437,1.164 0,0.482 -0.2,0.888 -0.506,1.141 -0.329,0.275 -0.827,0.421 -1.516,0.421 -0.627,0 -1.094,-0.046 -1.439,-0.108 l 0,-5.091 z m 0.934,4.425 c 0.1,0.023 0.283,0.046 0.544,0.046 0.65,0 1.049,-0.298 1.049,-0.872 0,-0.598 -0.429,-0.95 -1.133,-0.95 -0.192,0 -0.337,0.008 -0.46,0.046 l 0,1.73 z m 3.124,-4.425 0.941,0 0,1.937 c 0,0.1 0.008,0.199 0.023,0.284 0.084,0.428 0.398,0.712 0.842,0.712 0.115,0 0.199,-0.008 0.284,-0.023 l 0,0.88 c -0.077,0.015 -0.131,0.023 -0.222,0.023 -0.406,0 -0.843,-0.268 -1.026,-0.789 l -0.023,0 -0.038,0.705 -0.812,0 c 0.023,-0.33 0.031,-0.697 0.031,-1.202 l 0,-2.527 z m 4.256,3.813 c -1.125,0 -1.929,-0.75 -1.929,-1.975 0,-1.202 0.819,-1.922 1.868,-1.922 0.949,0 1.914,0.613 1.914,1.983 0,1.133 -0.743,1.914 -1.853,1.914 M 50.175,0.077 c 0.643,0 0.904,-0.674 0.904,-1.256 0,-0.758 -0.376,-1.278 -0.911,-1.278 -0.567,0 -0.927,0.543 -0.927,1.263 0,0.62 0.268,1.271 0.934,1.271 m 5.933,-0.475 c 0,0.513 0.015,0.819 0.031,1.072 l -0.819,0 -0.039,-0.498 -0.015,0 c -0.176,0.306 -0.505,0.582 -1.079,0.582 -0.896,0 -1.692,-0.743 -1.692,-1.968 0,-1.056 0.658,-1.822 1.584,-1.822 0.498,0 0.873,0.222 1.088,0.552 l 0.015,0 0,-0.322 c 0,-0.804 -0.459,-1.125 -1.072,-1.125 -0.452,0 -0.85,0.145 -1.087,0.283 l -0.207,-0.712 c 0.322,-0.191 0.827,-0.299 1.302,-0.299 0.513,0 1.056,0.108 1.439,0.452 0.39,0.352 0.551,0.911 0.551,1.692 l 0,2.113 z m -0.941,-1.026 c 0,-0.107 -0.008,-0.237 -0.039,-0.329 -0.107,-0.345 -0.413,-0.574 -0.765,-0.574 -0.59,0 -0.911,0.513 -0.911,1.148 0,0.758 0.39,1.217 0.918,1.217 0.398,0 0.666,-0.26 0.766,-0.605 0.023,-0.076 0.031,-0.16 0.031,-0.252 l 0,-0.605 z m 1.829,-1.631 0.942,0 0,1.937 c 0,0.1 0.008,0.199 0.023,0.284 0.084,0.428 0.398,0.712 0.842,0.712 0.115,0 0.199,-0.008 0.283,-0.023 l 0,0.88 c -0.076,0.015 -0.13,0.023 -0.222,0.023 -0.406,0 -0.842,-0.268 -1.026,-0.789 l -0.023,0 -0.038,0.705 -0.811,0 c 0.023,-0.33 0.03,-0.697 0.03,-1.202 l 0,-2.527 z m 5.459,2.236 c 0,0.819 -0.345,1.577 -1.539,1.577 -0.59,0 -1.072,-0.161 -1.348,-0.329 l 0.184,-0.613 c 0.253,0.161 0.636,0.276 1.003,0.276 0.658,0 0.758,-0.406 0.758,-0.651 l 0,-0.061 c -1.378,0.008 -2.212,-0.475 -2.212,-1.409 0,-0.566 0.421,-1.11 1.171,-1.11 0.49,0 0.88,0.207 1.102,0.498 l 0.023,0 0.069,-0.414 0.85,0 c -0.046,0.23 -0.061,0.559 -0.061,0.896 l 0,1.34 z m -0.919,-0.926 -0.023,-0.207 c -0.092,-0.268 -0.36,-0.513 -0.743,-0.513 -0.298,0 -0.535,0.168 -0.535,0.536 0,0.566 0.635,0.704 1.301,0.696 l 0,-0.512 z m 1.822,-1.31 0.919,0 0,2.205 c 0,0.107 0.015,0.215 0.046,0.314 0.091,0.253 0.329,0.528 0.681,0.528 0.436,0 0.643,-0.367 0.643,-0.888 l 0,-2.159 0.919,0 0,2.236 c 0,0.107 0.015,0.23 0.046,0.314 0.099,0.268 0.336,0.497 0.658,0.497 0.452,0 0.666,-0.367 0.666,-0.987 l 0,-2.06 0.919,0 0,2.198 c 0,1.194 -0.628,1.615 -1.241,1.615 -0.313,0 -0.551,-0.077 -0.765,-0.222 C 66.68,0.429 66.527,0.276 66.397,0.069 l -0.015,0 c -0.161,0.413 -0.544,0.689 -1.034,0.689 -0.635,0 -0.972,-0.345 -1.148,-0.636 l -0.023,0 -0.046,0.552 -0.804,0 c 0.016,-0.322 0.031,-0.682 0.031,-1.11 l 0,-2.619 z m 6.4,0 0.919,0 0,2.205 c 0,0.107 0.015,0.215 0.046,0.314 0.091,0.253 0.329,0.528 0.681,0.528 0.436,0 0.643,-0.367 0.643,-0.888 l 0,-2.159 0.919,0 0,2.236 c 0,0.107 0.015,0.23 0.046,0.314 0.099,0.268 0.336,0.497 0.658,0.497 0.452,0 0.666,-0.367 0.666,-0.987 l 0,-2.06 0.919,0 0,2.198 c 0,1.194 -0.628,1.615 -1.241,1.615 -0.313,0 -0.551,-0.077 -0.765,-0.222 C 73.08,0.429 72.927,0.276 72.797,0.069 l -0.015,0 c -0.161,0.413 -0.544,0.689 -1.034,0.689 -0.635,0 -0.972,-0.345 -1.148,-0.636 l -0.023,0 -0.046,0.552 -0.804,0 c 0.016,-0.322 0.031,-0.682 0.031,-1.11 l 0,-2.619 z m 9.562,1.6 c 0.015,0.085 0.03,0.222 0.03,0.399 0,0.819 -0.398,1.814 -1.607,1.814 -1.195,0 -1.822,-0.972 -1.822,-2.006 0,-1.141 0.712,-1.883 1.921,-1.883 0.536,0 0.98,0.099 1.302,0.237 l -0.138,0.643 c -0.291,-0.099 -0.597,-0.168 -1.034,-0.168 -0.604,0 -1.125,0.291 -1.148,0.964 l 2.496,0 z m -2.496,0.659 c 0.038,0.383 0.283,0.911 0.865,0.911 0.628,0 0.781,-0.567 0.773,-0.911 l -1.638,0 z" />
      </g>
      <g
         style="fill:#0054a4;fill-opacity:1"
         transform="matrix(1.25,0,0,-1.25,351.38288,557.23845)"
         id="g136">
        <path
           inkscape:connector-curvature="0"
           id="path138"
           style="fill:#0054a4;fill-opacity:1;fill-rule:nonzero;stroke:none"
           d="m 0,0 c 0.283,-0.176 0.85,-0.329 1.401,-0.329 1.324,0 1.952,0.719 1.952,1.554 0,0.742 -0.429,1.194 -1.324,1.531 -0.689,0.268 -0.988,0.452 -0.988,0.85 0,0.306 0.253,0.62 0.85,0.62 0.482,0 0.842,-0.146 1.033,-0.245 L 3.146,4.739 C 2.879,4.877 2.473,4.999 1.914,4.999 0.789,4.999 0.084,4.364 0.084,3.514 0.084,2.771 0.628,2.32 1.485,2.013 2.136,1.776 2.396,1.546 2.396,1.156 2.396,0.735 2.059,0.452 1.462,0.452 0.98,0.452 0.513,0.605 0.214,0.781 L 0,0 Z m 7.28,1.355 c 0.016,0.084 0.031,0.222 0.031,0.398 0,0.819 -0.398,1.814 -1.608,1.814 -1.194,0 -1.822,-0.972 -1.822,-2.005 0,-1.141 0.712,-1.884 1.922,-1.884 0.536,0 0.98,0.1 1.301,0.238 L 6.967,0.559 C 6.676,0.459 6.369,0.39 5.933,0.39 5.328,0.39 4.808,0.681 4.785,1.355 l 2.495,0 z M 4.785,2.013 c 0.038,0.383 0.283,0.911 0.865,0.911 0.628,0 0.781,-0.566 0.773,-0.911 l -1.638,0 z M 10.588,0.567 C 10.404,0.49 10.166,0.421 9.845,0.421 c -0.643,0 -1.141,0.436 -1.141,1.202 -0.007,0.681 0.421,1.21 1.141,1.21 0.337,0 0.559,-0.069 0.712,-0.146 l 0.168,0.712 C 10.511,3.491 10.159,3.567 9.814,3.567 8.505,3.567 7.74,2.702 7.74,1.585 c 0,-1.156 0.758,-1.907 1.921,-1.907 0.467,0 0.858,0.1 1.057,0.192 l -0.13,0.697 z m 0.734,-0.812 0.942,0 0,1.937 c 0,0.099 0.008,0.199 0.023,0.283 0.084,0.429 0.398,0.712 0.842,0.712 0.115,0 0.199,-0.008 0.283,-0.023 l 0,0.881 C 13.336,3.56 13.282,3.567 13.19,3.567 12.785,3.567 12.348,3.3 12.164,2.779 l -0.022,0 -0.039,0.704 -0.811,0 c 0.023,-0.329 0.03,-0.696 0.03,-1.202 l 0,-2.526 z m 5.727,1.6 c 0.015,0.084 0.03,0.222 0.03,0.398 0,0.819 -0.398,1.814 -1.607,1.814 -1.195,0 -1.822,-0.972 -1.822,-2.005 0,-1.141 0.712,-1.884 1.921,-1.884 0.536,0 0.98,0.1 1.302,0.238 L 16.735,0.559 C 16.444,0.459 16.138,0.39 15.701,0.39 c -0.604,0 -1.125,0.291 -1.148,0.965 l 2.496,0 z m -2.496,0.658 c 0.038,0.383 0.283,0.911 0.865,0.911 0.628,0 0.781,-0.566 0.773,-0.911 l -1.638,0 z m 3.345,2.167 0,-0.697 -0.528,0 0,-0.704 0.528,0 0,-1.753 c 0,-0.49 0.092,-0.835 0.299,-1.049 0.176,-0.191 0.459,-0.306 0.812,-0.306 0.29,0 0.543,0.046 0.681,0.099 l -0.015,0.712 c -0.108,-0.03 -0.2,-0.038 -0.368,-0.038 -0.36,0 -0.482,0.23 -0.482,0.689 l 0,1.646 0.895,0 0,0.704 -0.895,0 0,0.957 -0.927,-0.26 z m 5.336,-2.19 c 0,0.82 -0.344,1.577 -1.538,1.577 -0.59,0 -1.072,-0.16 -1.348,-0.329 l 0.184,-0.612 c 0.253,0.161 0.635,0.275 1.003,0.275 0.658,0 0.758,-0.405 0.758,-0.65 l 0,-0.062 C 20.915,2.197 20.08,1.715 20.08,0.781 c 0,-0.567 0.421,-1.11 1.172,-1.11 0.49,0 0.88,0.207 1.102,0.497 l 0.023,0 0.069,-0.413 0.85,0 c -0.046,0.23 -0.062,0.559 -0.062,0.896 l 0,1.339 z M 22.316,1.064 22.293,0.857 C 22.201,0.589 21.933,0.344 21.55,0.344 c -0.298,0 -0.536,0.169 -0.536,0.536 0,0.567 0.636,0.705 1.302,0.697 l 0,-0.513 z m 1.822,-1.309 0.941,0 0,1.937 c 0,0.099 0.008,0.199 0.023,0.283 0.084,0.429 0.398,0.712 0.842,0.712 0.115,0 0.199,-0.008 0.284,-0.023 l 0,0.881 C 26.151,3.56 26.098,3.567 26.006,3.567 25.6,3.567 25.164,3.3 24.98,2.779 l -0.023,0 -0.038,0.704 -0.812,0 C 24.13,3.154 24.138,2.787 24.138,2.281 l 0,-2.526 z m 3.575,3.728 -0.942,0 0,-3.728 0.942,0 0,3.728 z m -0.467,1.554 c -0.314,0 -0.529,-0.222 -0.529,-0.513 0,-0.275 0.207,-0.505 0.521,-0.505 0.329,0 0.536,0.23 0.536,0.505 -0.008,0.291 -0.207,0.513 -0.528,0.513 M 31.533,1.99 c 0,0.82 -0.345,1.577 -1.539,1.577 -0.589,0 -1.072,-0.16 -1.347,-0.329 L 28.83,2.626 c 0.253,0.161 0.636,0.275 1.003,0.275 0.659,0 0.758,-0.405 0.758,-0.65 l 0,-0.062 c -1.378,0.008 -2.212,-0.474 -2.212,-1.408 0,-0.567 0.421,-1.11 1.171,-1.11 0.49,0 0.88,0.207 1.102,0.497 l 0.023,0 0.069,-0.413 0.85,0 c -0.046,0.23 -0.061,0.559 -0.061,0.896 l 0,1.339 z M 30.614,1.064 30.591,0.857 c -0.092,-0.268 -0.36,-0.513 -0.742,-0.513 -0.299,0 -0.536,0.169 -0.536,0.536 0,0.567 0.635,0.705 1.301,0.697 l 0,-0.513 z m 1.929,3.116 0,-0.697 -0.528,0 0,-0.704 0.528,0 0,-1.753 c 0,-0.49 0.092,-0.835 0.299,-1.049 0.176,-0.191 0.459,-0.306 0.811,-0.306 0.291,0 0.544,0.046 0.682,0.099 L 34.319,0.482 C 34.212,0.452 34.12,0.444 33.952,0.444 c -0.36,0 -0.482,0.23 -0.482,0.689 l 0,1.646 0.895,0 0,0.704 -0.895,0 0,0.957 -0.927,-0.26 z m 6.691,-0.613 c -1.125,0 -1.929,-0.75 -1.929,-1.975 0,-1.202 0.819,-1.921 1.868,-1.921 0.949,0 1.914,0.612 1.914,1.983 0,1.133 -0.743,1.913 -1.853,1.913 M 39.211,2.886 c 0.643,0 0.904,-0.674 0.904,-1.255 0,-0.758 -0.375,-1.279 -0.911,-1.279 -0.567,0 -0.927,0.544 -0.927,1.263 0,0.62 0.268,1.271 0.934,1.271 m 3.606,-3.131 0,3.024 0.804,0 0,0.704 -0.812,0 0,0.192 c 0,0.459 0.154,0.849 0.621,0.849 0.176,0 0.298,-0.03 0.405,-0.068 l 0.061,0.727 c -0.145,0.046 -0.344,0.092 -0.597,0.092 -0.329,0 -0.696,-0.1 -0.972,-0.36 C 42.006,4.609 41.875,4.126 41.875,3.644 l 0,-0.161 -0.505,0 0,-0.704 0.505,0 0,-3.024 0.942,0 z m 4.011,4.425 0,-0.697 -0.528,0 0,-0.704 0.528,0 0,-1.753 c 0,-0.49 0.092,-0.835 0.299,-1.049 0.176,-0.191 0.459,-0.306 0.812,-0.306 0.29,0 0.543,0.046 0.681,0.099 l -0.015,0.712 c -0.108,-0.03 -0.2,-0.038 -0.368,-0.038 -0.36,0 -0.482,0.23 -0.482,0.689 l 0,1.646 0.895,0 0,0.704 -0.895,0 0,0.957 -0.927,-0.26 z m 2.443,-4.425 0.941,0 0,2.235 c 0,0.1 0.008,0.199 0.038,0.284 0.108,0.283 0.368,0.528 0.735,0.528 0.521,0 0.72,-0.413 0.72,-0.949 l 0,-2.098 0.942,0 0,2.197 c 0,1.194 -0.666,1.615 -1.302,1.615 -0.237,0 -0.459,-0.061 -0.651,-0.168 C 50.503,3.3 50.342,3.154 50.228,2.978 l -0.016,0 0,2.212 -0.941,0 0,-5.435 z m 7.448,1.6 c 0.016,0.084 0.031,0.222 0.031,0.398 0,0.819 -0.398,1.814 -1.608,1.814 -1.194,0 -1.822,-0.972 -1.822,-2.005 0,-1.141 0.712,-1.884 1.922,-1.884 0.536,0 0.98,0.1 1.301,0.238 l -0.138,0.643 c -0.29,-0.1 -0.597,-0.169 -1.033,-0.169 -0.605,0 -1.125,0.291 -1.148,0.965 l 2.495,0 z m -2.495,0.658 c 0.038,0.383 0.283,0.911 0.865,0.911 0.627,0 0.781,-0.566 0.773,-0.911 l -1.638,0 z m 5.787,-2.258 0.934,0 0,1.952 c 0.13,-0.03 0.283,-0.038 0.459,-0.038 0.667,0 1.248,0.184 1.631,0.559 0.283,0.275 0.436,0.673 0.436,1.163 0,0.483 -0.199,0.888 -0.505,1.141 -0.329,0.276 -0.827,0.421 -1.516,0.421 -0.627,0 -1.094,-0.046 -1.439,-0.107 l 0,-5.091 z m 0.934,4.425 c 0.1,0.023 0.283,0.046 0.544,0.046 0.65,0 1.049,-0.299 1.049,-0.873 0,-0.597 -0.429,-0.949 -1.134,-0.949 -0.191,0 -0.336,0.007 -0.459,0.046 l 0,1.73 z m 5.948,-2.19 c 0,0.82 -0.344,1.577 -1.538,1.577 -0.59,0 -1.072,-0.16 -1.348,-0.329 l 0.184,-0.612 c 0.253,0.161 0.635,0.275 1.003,0.275 0.658,0 0.758,-0.405 0.758,-0.65 l 0,-0.062 c -1.378,0.008 -2.213,-0.474 -2.213,-1.408 0,-0.567 0.421,-1.11 1.172,-1.11 0.49,0 0.88,0.207 1.102,0.497 l 0.023,0 0.069,-0.413 0.85,0 c -0.046,0.23 -0.062,0.559 -0.062,0.896 l 0,1.339 z M 65.975,1.064 65.952,0.857 C 65.86,0.589 65.592,0.344 65.209,0.344 c -0.298,0 -0.536,0.169 -0.536,0.536 0,0.567 0.636,0.705 1.302,0.697 l 0,-0.513 z M 70.407,0.567 C 70.224,0.49 69.986,0.421 69.665,0.421 c -0.643,0 -1.141,0.436 -1.141,1.202 -0.008,0.681 0.421,1.21 1.141,1.21 0.337,0 0.559,-0.069 0.712,-0.146 l 0.168,0.712 c -0.214,0.092 -0.566,0.168 -0.911,0.168 -1.309,0 -2.075,-0.865 -2.075,-1.982 0,-1.156 0.758,-1.907 1.922,-1.907 0.467,0 0.857,0.1 1.056,0.192 l -0.13,0.697 z m 1.677,2.916 -0.942,0 0,-3.728 0.942,0 0,3.728 z m -0.467,1.554 c -0.314,0 -0.528,-0.222 -0.528,-0.513 0,-0.275 0.206,-0.505 0.52,-0.505 0.329,0 0.536,0.23 0.536,0.505 -0.008,0.291 -0.207,0.513 -0.528,0.513 m 2.442,-5.282 0,3.024 1.271,0 0,-3.024 0.941,0 0,3.728 -2.22,0 0,0.153 c 0,0.49 0.215,0.888 0.865,0.888 0.353,0 0.651,-0.099 0.82,-0.199 l 0.214,0.712 c -0.214,0.138 -0.659,0.238 -1.034,0.238 -1.102,0 -1.799,-0.613 -1.799,-1.616 l 0,-0.176 -0.505,0 0,-0.704 0.505,0 0,-3.024 0.942,0 z m 5.749,0.812 C 79.624,0.49 79.387,0.421 79.066,0.421 c -0.643,0 -1.141,0.436 -1.141,1.202 -0.008,0.681 0.421,1.21 1.141,1.21 0.336,0 0.558,-0.069 0.712,-0.146 l 0.168,0.712 c -0.214,0.092 -0.567,0.168 -0.911,0.168 -1.309,0 -2.075,-0.865 -2.075,-1.982 0,-1.156 0.758,-1.907 1.922,-1.907 0.467,0 0.857,0.1 1.056,0.192 l -0.13,0.697 z m 3.33,-0.812 0.934,0 0,2.121 0.475,0 c 0.536,-0.016 0.773,-0.23 0.926,-0.904 0.138,-0.643 0.268,-1.064 0.345,-1.217 l 0.964,0 c -0.099,0.199 -0.237,0.796 -0.405,1.439 -0.123,0.498 -0.345,0.858 -0.72,0.995 l 0,0.023 c 0.49,0.169 0.942,0.621 0.942,1.287 0,0.444 -0.161,0.803 -0.444,1.041 -0.353,0.291 -0.85,0.413 -1.593,0.413 -0.543,0 -1.064,-0.046 -1.424,-0.115 l 0,-5.083 z m 0.934,4.44 c 0.092,0.023 0.283,0.046 0.582,0.046 0.613,0 1.003,-0.268 1.003,-0.827 0,-0.513 -0.39,-0.849 -1.026,-0.849 l -0.559,0 0,1.63 z m 6.477,-2.84 c 0.015,0.084 0.03,0.222 0.03,0.398 0,0.819 -0.398,1.814 -1.607,1.814 -1.195,0 -1.822,-0.972 -1.822,-2.005 0,-1.141 0.712,-1.884 1.921,-1.884 0.536,0 0.98,0.1 1.302,0.238 L 90.235,0.559 C 89.944,0.459 89.638,0.39 89.201,0.39 c -0.605,0 -1.125,0.291 -1.148,0.965 l 2.496,0 z m -2.496,0.658 c 0.038,0.383 0.283,0.911 0.865,0.911 0.628,0 0.781,-0.566 0.773,-0.911 l -1.638,0 z m 6.568,0.398 c 0,0.513 0.016,0.82 0.031,1.072 l -0.819,0 -0.038,-0.497 -0.016,0 c -0.176,0.306 -0.505,0.581 -1.079,0.581 -0.896,0 -1.692,-0.742 -1.692,-1.967 0,-1.056 0.658,-1.822 1.585,-1.822 0.497,0 0.872,0.222 1.087,0.551 l 0.015,0 0,-0.321 c 0,-0.804 -0.459,-1.126 -1.072,-1.126 -0.451,0 -0.85,0.146 -1.087,0.284 l -0.207,-0.712 c 0.322,-0.192 0.827,-0.299 1.302,-0.299 0.513,0 1.056,0.107 1.439,0.452 0.391,0.352 0.551,0.911 0.551,1.692 l 0,2.112 z M 93.68,1.386 c 0,-0.108 -0.008,-0.238 -0.039,-0.33 -0.107,-0.344 -0.413,-0.574 -0.765,-0.574 -0.59,0 -0.911,0.513 -0.911,1.149 0,0.758 0.39,1.217 0.919,1.217 0.398,0 0.666,-0.26 0.765,-0.605 C 93.672,2.167 93.68,2.082 93.68,1.99 l 0,-0.604 z m 2.771,2.097 -0.942,0 0,-3.728 0.942,0 0,3.728 z m -0.467,1.554 c -0.314,0 -0.528,-0.222 -0.528,-0.513 0,-0.275 0.207,-0.505 0.52,-0.505 0.33,0 0.536,0.23 0.536,0.505 -0.007,0.291 -0.206,0.513 -0.528,0.513 m 3.085,-1.47 c -1.125,0 -1.929,-0.75 -1.929,-1.975 0,-1.202 0.819,-1.921 1.868,-1.921 0.949,0 1.914,0.612 1.914,1.983 0,1.133 -0.743,1.913 -1.853,1.913 M 99.046,2.886 c 0.643,0 0.904,-0.674 0.904,-1.255 0,-0.758 -0.376,-1.279 -0.911,-1.279 -0.567,0 -0.927,0.544 -0.927,1.263 0,0.62 0.268,1.271 0.934,1.271 m 2.557,-3.131 0.942,0 0,2.197 c 0,0.107 0.015,0.222 0.046,0.299 0.099,0.283 0.36,0.551 0.735,0.551 0.513,0 0.712,-0.406 0.712,-0.942 l 0,-2.105 0.941,0 0,2.212 c 0,1.179 -0.673,1.6 -1.324,1.6 -0.62,0 -1.026,-0.352 -1.194,-0.643 l -0.023,0 -0.046,0.559 -0.819,0 c 0.015,-0.321 0.03,-0.681 0.03,-1.11 l 0,-2.618 z m 7.181,2.235 c 0,0.82 -0.344,1.577 -1.539,1.577 -0.589,0 -1.072,-0.16 -1.347,-0.329 l 0.184,-0.612 c 0.252,0.161 0.635,0.275 1.003,0.275 0.658,0 0.757,-0.405 0.757,-0.65 l 0,-0.062 c -1.378,0.008 -2.212,-0.474 -2.212,-1.408 0,-0.567 0.421,-1.11 1.171,-1.11 0.49,0 0.881,0.207 1.103,0.497 l 0.023,0 0.069,-0.413 0.849,0 c -0.046,0.23 -0.061,0.559 -0.061,0.896 l 0,1.339 z m -0.919,-0.926 -0.023,-0.207 c -0.091,-0.268 -0.359,-0.513 -0.742,-0.513 -0.299,0 -0.536,0.169 -0.536,0.536 0,0.567 0.635,0.705 1.301,0.697 l 0,-0.513 z m 1.822,-1.309 0.942,0 0,5.435 -0.942,0 0,-5.435 z" />
      </g>
      <g
         style="fill:#0054a4;fill-opacity:1"
         transform="matrix(1.25,0,0,-1.25,351.38787,541.3632)"
         id="g140">
        <path
           inkscape:connector-curvature="0"
           id="path142"
           style="fill:#0054a4;fill-opacity:1;fill-rule:nonzero;stroke:none"
           d="M 0,0 1.915,4.599 C 3.964,3.15 5.978,2.426 7.96,2.426 c 3.046,0 4.569,1.05 4.569,3.151 0,0.984 -0.359,1.922 -1.077,2.815 -0.719,0.892 -2.199,1.893 -4.441,3.003 -2.241,1.109 -3.751,2.022 -4.528,2.736 -0.779,0.715 -1.378,1.565 -1.797,2.55 -0.419,0.984 -0.628,2.073 -0.628,3.268 0,2.23 0.828,4.081 2.483,5.551 1.656,1.469 3.781,2.204 6.375,2.204 3.379,0 5.859,-0.624 7.442,-1.874 l -1.58,-4.417 C 12.952,22.709 11.026,23.358 9,23.358 7.8,23.358 6.87,23.046 6.21,22.422 5.55,21.798 5.221,20.988 5.221,19.991 c 0,-1.654 1.858,-3.374 5.575,-5.159 1.959,-0.944 3.371,-1.812 4.238,-2.605 0.866,-0.793 1.525,-1.716 1.978,-2.771 0.453,-1.055 0.68,-2.231 0.68,-3.528 0,-2.333 -0.935,-4.253 -2.803,-5.76 C 13.021,-1.339 10.518,-2.092 7.38,-2.092 4.654,-2.092 2.193,-1.395 0,0" />
      </g>
      <g
         style="fill:#0054a4;fill-opacity:1"
         transform="matrix(1.25,0,0,-1.25,351.38787,541.3632)"
         id="g144">
        <path
           inkscape:connector-curvature="0"
           id="path146"
           style="fill:#0054a4;fill-opacity:1;fill-rule:nonzero;stroke:none"
           d="M 0,0 0.2,-0.083 2.115,4.516 1.915,4.599 1.79,4.422 C 3.864,2.954 5.924,2.209 7.96,2.209 c 1.547,10e-4 2.731,0.263 3.55,0.826 0.822,0.562 1.241,1.441 1.236,2.542 10e-4,1.038 -0.383,2.029 -1.125,2.951 -0.761,0.94 -2.259,1.943 -4.513,3.061 -2.233,1.104 -3.735,2.016 -4.479,2.702 -0.756,0.695 -1.336,1.517 -1.743,2.475 -0.407,0.954 -0.611,2.013 -0.611,3.183 0.003,2.176 0.797,3.953 2.41,5.389 1.614,1.43 3.677,2.148 6.231,2.149 3.354,0.002 5.787,-0.624 7.307,-1.827 l 0.135,0.17 -0.204,0.073 -1.58,-4.417 0.204,-0.073 0.125,0.177 C 13.047,22.908 11.073,23.575 9,23.575 7.765,23.576 6.771,23.251 6.061,22.58 5.357,21.917 5.001,21.035 5.004,19.991 c 0.001,-0.914 0.511,-1.809 1.463,-2.69 0.955,-0.882 2.365,-1.766 4.236,-2.665 1.947,-0.937 3.346,-1.801 4.184,-2.569 0.845,-0.773 1.484,-1.67 1.926,-2.697 C 17.253,8.345 17.475,7.2 17.475,5.928 17.471,3.654 16.577,1.812 14.753,0.337 12.932,-1.131 10.485,-1.875 7.38,-1.875 4.691,-1.875 2.275,-1.19 0.116,0.183 L 0,0 0.2,-0.083 0,0 -0.116,-0.183 C 2.111,-1.6 4.617,-2.309 7.38,-2.309 c 3.171,0 5.729,0.763 7.645,2.308 1.913,1.538 2.887,3.537 2.884,5.929 0,1.322 -0.232,2.528 -0.698,3.614 -0.465,1.082 -1.143,2.033 -2.031,2.845 -0.895,0.817 -2.321,1.691 -4.289,2.64 -1.848,0.887 -3.226,1.756 -4.129,2.593 -0.907,0.839 -1.326,1.63 -1.325,2.371 0.003,0.95 0.307,1.689 0.922,2.274 0.611,0.576 1.476,0.875 2.641,0.876 1.979,-10e-4 3.856,-0.631 5.652,-1.905 l 0.234,-0.165 1.728,4.833 -0.122,0.097 c -1.645,1.295 -4.172,1.919 -7.576,1.92 -2.634,0.001 -4.82,-0.751 -6.519,-2.259 -1.698,-1.504 -2.559,-3.429 -2.556,-5.713 0,-1.22 0.214,-2.34 0.646,-3.353 0.43,-1.012 1.048,-1.889 1.849,-2.624 0.811,-0.744 2.329,-1.657 4.579,-2.771 2.229,-1.102 3.691,-2.1 4.368,-2.945 0.693,-0.864 1.029,-1.749 1.029,-2.679 -0.004,-1 -0.347,-1.696 -1.048,-2.185 C 10.56,2.905 9.459,2.642 7.96,2.643 6.032,2.643 4.063,3.346 2.04,4.776 L 1.819,4.933 -0.27,-0.085 -0.116,-0.183 0,0 Z" />
      </g>
      <g
         style="fill:#0054a4;fill-opacity:1"
         transform="matrix(1.25,0,0,-1.25,384.8895,530.08483)"
         id="g148">
        <path
           inkscape:connector-curvature="0"
           id="path150"
           style="fill:#0054a4;fill-opacity:1;fill-rule:nonzero;stroke:none"
           d="m 0,0 0,-10.608 -5.135,0 0,28.792 c 3.437,0.144 5.445,0.216 6.027,0.216 4.586,0 7.939,-0.698 10.061,-2.094 2.121,-1.396 3.182,-3.575 3.182,-6.536 0,-6.605 -3.932,-9.908 -11.792,-9.908 C 1.76,-0.138 0.979,-0.092 0,0 M 0,13.782 0,4.52 C 0.876,4.428 1.567,4.382 2.071,4.382 c 2.364,0 4.091,0.392 5.18,1.175 1.089,0.783 1.634,2.056 1.634,3.821 0,3.001 -2.438,4.502 -7.311,4.502 C 1.029,13.88 0.505,13.847 0,13.782" />
      </g>
      <g
         style="fill:#0054a4;fill-opacity:1"
         transform="matrix(1.25,0,0,-1.25,384.8895,530.08483)"
         id="g152">
        <path
           inkscape:connector-curvature="0"
           id="path154"
           style="fill:#0054a4;fill-opacity:1;fill-rule:nonzero;stroke:none"
           d="m 0,0 -0.217,0 0,-10.391 -4.701,0 0,28.575 -0.217,0 0.009,-0.217 c 3.435,0.144 5.448,0.216 6.018,0.216 4.565,0.002 7.882,-0.7 9.941,-2.058 2.057,-1.359 3.08,-3.443 3.085,-6.355 C 13.915,6.508 12.954,4.109 11.047,2.505 9.139,0.901 6.245,0.079 2.343,0.079 1.772,0.079 0.995,0.124 0.02,0.216 L -0.217,0.238 -0.217,0 0,0 -0.02,-0.216 c 0.983,-0.092 1.769,-0.138 2.363,-0.139 3.958,0.001 6.96,0.83 8.983,2.528 2.024,1.699 3.028,4.255 3.025,7.597 0.006,3.01 -1.094,5.284 -3.279,6.717 -2.183,1.434 -5.573,2.128 -10.18,2.13 -0.593,0 -2.597,-0.073 -6.036,-0.217 l -0.207,-0.008 0,-29.217 5.568,0 L 0.217,0 0,0 -0.02,-0.216 0,0 Z m 0,13.782 -0.217,0 0,-9.457 0.194,-0.021 C 0.858,4.212 1.554,4.166 2.071,4.165 c 2.387,0.002 4.155,0.391 5.307,1.216 1.157,0.83 1.727,2.192 1.723,3.997 0.007,1.559 -0.653,2.781 -1.931,3.561 -1.275,0.783 -3.138,1.157 -5.596,1.158 -0.553,0 -1.087,-0.034 -1.602,-0.1 l -0.189,-0.025 0,-0.19 0.217,0 0.028,-0.215 c 0.495,0.064 1.01,0.096 1.546,0.096 C 3.989,13.664 5.781,13.287 6.943,12.57 8.102,11.849 8.662,10.82 8.668,9.378 8.664,7.654 8.145,6.47 7.125,5.733 6.099,4.992 4.412,4.598 2.071,4.599 1.579,4.599 0.894,4.644 0.023,4.736 L 0,4.52 l 0.217,0 0,9.262 L 0,13.782 0.028,13.567 0,13.782 Z" />
      </g>
      <g
         style="fill:#0054a4;fill-opacity:1"
         transform="matrix(1.25,0,0,-1.25,428.21037,543.34495)"
         id="g156">
        <path
           inkscape:connector-curvature="0"
           id="path158"
           style="fill:#0054a4;fill-opacity:1;fill-rule:nonzero;stroke:none"
           d="m 0,0 -7.841,11.9 c -0.786,0.013 -1.885,0.059 -3.296,0.138 l 0,-12.038 -5.394,0 0,28.826 c 0.292,0 1.418,0.049 3.376,0.147 1.957,0.099 3.535,0.148 4.734,0.148 7.431,0 11.147,-2.835 11.147,-8.502 0,-1.707 -0.513,-3.262 -1.538,-4.666 C 0.162,14.55 -1.129,13.559 -2.687,12.982 L 5.974,0 0,0 Z m -11.137,24.369 0,-8.003 c 0.959,-0.079 1.691,-0.118 2.197,-0.118 2.17,0 3.758,0.301 4.764,0.905 1.005,0.602 1.508,1.776 1.508,3.519 0,1.415 -0.539,2.405 -1.618,2.969 -1.079,0.563 -2.777,0.846 -5.094,0.846 -0.559,0 -1.144,-0.04 -1.757,-0.118" />
      </g>
      <g
         style="fill:#0054a4;fill-opacity:1"
         transform="matrix(1.25,0,0,-1.25,428.21037,543.34495)"
         id="g160">
        <path
           inkscape:connector-curvature="0"
           id="path162"
           style="fill:#0054a4;fill-opacity:1;fill-rule:nonzero;stroke:none"
           d="m 0,0 0.181,0.119 -7.904,11.996 -0.114,0.002 c -0.782,0.012 -1.878,0.059 -3.288,0.137 l -0.229,0.013 0,-12.05 -4.961,0 0,28.609 -0.216,0 0,-0.217 c 0.307,0 1.426,0.049 3.387,0.148 1.955,0.098 3.53,0.147 4.723,0.147 3.69,0.001 6.429,-0.707 8.229,-2.081 1.798,-1.375 2.698,-3.415 2.701,-6.204 0,-1.663 -0.496,-3.168 -1.496,-4.538 -1.004,-1.372 -2.257,-2.333 -3.776,-2.896 L -3.02,13.09 5.569,0.217 0,0.217 0,0 0.181,0.119 0,0 l 0,-0.217 6.38,0 -8.887,13.319 -0.18,-0.12 0.075,-0.204 c 1.598,0.592 2.927,1.613 3.975,3.047 1.051,1.437 1.581,3.043 1.58,4.794 0.004,2.878 -0.954,5.089 -2.872,6.548 -1.916,1.46 -4.75,2.17 -8.492,2.171 -1.205,0 -2.785,-0.05 -4.745,-0.148 -1.955,-0.098 -3.087,-0.148 -3.365,-0.147 l -0.217,0 0,-29.26 5.828,0 0,12.255 -0.217,0 -0.012,-0.217 c 1.413,-0.078 2.513,-0.125 3.305,-0.138 L -7.841,11.9 -8.022,11.781 -0.117,-0.217 0,-0.217 0,0 Z m -11.137,24.369 -0.217,0 0,-8.203 0.199,-0.016 c 0.963,-0.079 1.698,-0.119 2.215,-0.119 2.19,0.002 3.809,0.299 4.875,0.936 1.093,0.655 1.617,1.927 1.614,3.705 0.007,1.467 -0.582,2.566 -1.735,3.161 -1.135,0.591 -2.859,0.869 -5.194,0.87 -0.569,0 -1.164,-0.04 -1.785,-0.119 l -0.189,-0.025 0,-0.19 0.217,0 0.028,-0.215 c 0.604,0.077 1.18,0.116 1.729,0.116 2.299,0.001 3.972,-0.285 4.994,-0.821 1.004,-0.533 1.493,-1.414 1.501,-2.777 -0.003,-1.708 -0.486,-2.783 -1.403,-3.333 -0.945,-0.57 -2.502,-0.876 -4.652,-0.874 -0.495,0 -1.224,0.039 -2.179,0.117 l -0.018,-0.216 0.217,0 0,8.003 -0.217,0 0.028,-0.215 -0.028,0.215 z" />
      </g>
      <g
         style="fill:#0054a4;fill-opacity:1"
         transform="matrix(1.25,0,0,-1.25,444.23312,512.94632)"
         id="g164">
        <path
           inkscape:connector-curvature="0"
           id="path166"
           style="fill:#0054a4;fill-opacity:1;fill-rule:nonzero;stroke:none"
           d="m 0,0 0,-6.809 9.358,0 0,-4.349 -9.358,0 0,-8.64 13.171,0 0,-4.521 -18.312,0 0,28.839 18.312,0 0,-4.52 L 0,0 Z" />
      </g>
      <g
         style="fill:#0054a4;fill-opacity:1"
         transform="matrix(1.25,0,0,-1.25,444.23312,512.94632)"
         id="g168">
        <path
           inkscape:connector-curvature="0"
           id="path170"
           style="fill:#0054a4;fill-opacity:1;fill-rule:nonzero;stroke:none"
           d="m 0,0 -0.217,0 0,-7.026 9.359,0 0,-3.915 -9.359,0 0,-9.074 13.171,0 0,-4.087 -17.878,0 0,28.406 17.878,0 0,-4.087 -13.171,0 0,-0.217 0.217,0 0,-0.217 13.388,0 0,4.954 -18.746,0 0,-29.273 18.746,0 0,4.954 -13.171,0 0,8.207 9.358,0 0,4.783 -9.358,0 L 0.217,0 0,0 0,-0.217 0,0 Z" />
      </g>
      <g
         style="fill:#0054a4;fill-opacity:1"
         transform="matrix(1.25,0,0,-1.25,472.40475,530.08483)"
         id="g172">
        <path
           inkscape:connector-curvature="0"
           id="path174"
           style="fill:#0054a4;fill-opacity:1;fill-rule:nonzero;stroke:none"
           d="m 0,0 0,-10.608 -5.135,0 0,28.792 c 3.437,0.144 5.445,0.216 6.027,0.216 4.586,0 7.939,-0.698 10.061,-2.094 2.121,-1.396 3.182,-3.575 3.182,-6.536 0,-6.605 -3.932,-9.908 -11.792,-9.908 C 1.761,-0.138 0.979,-0.092 0,0 M 0,13.782 0,4.52 C 0.876,4.428 1.567,4.382 2.072,4.382 c 2.363,0 4.09,0.392 5.179,1.175 1.089,0.783 1.634,2.056 1.634,3.821 0,3.001 -2.438,4.502 -7.311,4.502 C 1.029,13.88 0.505,13.847 0,13.782" />
      </g>
      <g
         style="fill:#0054a4;fill-opacity:1"
         transform="matrix(1.25,0,0,-1.25,472.40475,530.08483)"
         id="g176">
        <path
           inkscape:connector-curvature="0"
           id="path178"
           style="fill:#0054a4;fill-opacity:1;fill-rule:nonzero;stroke:none"
           d="m 0,0 -0.217,0 0,-10.391 -4.701,0 0,28.575 -0.217,0 0.009,-0.217 c 3.435,0.144 5.448,0.216 6.018,0.216 4.565,0.002 7.882,-0.7 9.941,-2.058 2.057,-1.359 3.08,-3.443 3.085,-6.355 C 13.915,6.508 12.954,4.109 11.047,2.505 9.139,0.901 6.245,0.079 2.343,0.079 1.772,0.079 0.995,0.124 0.02,0.216 L -0.217,0.238 -0.217,0 0,0 -0.02,-0.216 c 0.983,-0.092 1.769,-0.138 2.363,-0.139 3.958,0.001 6.96,0.83 8.983,2.528 2.024,1.699 3.028,4.255 3.025,7.597 0.006,3.01 -1.094,5.284 -3.279,6.717 -2.183,1.434 -5.573,2.128 -10.18,2.13 -0.593,0 -2.597,-0.073 -6.036,-0.217 l -0.207,-0.008 0,-29.217 5.568,0 L 0.217,0 0,0 -0.02,-0.216 0,0 Z m 0,13.782 -0.217,0 0,-9.457 0.194,-0.021 C 0.858,4.212 1.554,4.166 2.072,4.165 c 2.386,0.002 4.154,0.391 5.306,1.216 1.157,0.83 1.727,2.192 1.723,3.997 0.007,1.559 -0.653,2.781 -1.931,3.561 -1.275,0.783 -3.138,1.157 -5.596,1.158 -0.553,0 -1.087,-0.034 -1.602,-0.1 l -0.189,-0.025 0,-0.19 0.217,0 0.028,-0.215 c 0.495,0.064 1.01,0.096 1.546,0.096 C 3.989,13.664 5.781,13.287 6.943,12.57 8.102,11.849 8.662,10.82 8.668,9.378 8.664,7.654 8.145,6.47 7.125,5.733 6.099,4.992 4.412,4.598 2.072,4.599 1.579,4.599 0.894,4.644 0.023,4.736 L 0,4.52 l 0.217,0 0,9.262 L 0,13.782 0.028,13.567 0,13.782 Z" />
      </g>
    </g>
  </g>
</svg>
